<svg id="Layer_1" height="512" viewBox="0 0 512 512" width="512" xmlns="http://www.w3.org/2000/svg" data-name="Layer 1"><path d="m91.42 92.554c23.418 0 42.47-18.517 42.47-41.277s-19.052-41.277-42.47-41.277-42.469 18.517-42.469 41.277 19.049 41.277 42.469 41.277zm0-70.554c16.8 0 30.47 13.134 30.47 29.277s-13.669 29.277-30.47 29.277-30.469-13.134-30.469-29.277 13.669-29.277 30.469-29.277z"/><path d="m31 193.9h120.84a6 6 0 0 0 6-6v-29.576a55.548 55.548 0 0 0 -55.485-55.486h-21.869a55.549 55.549 0 0 0 -55.486 55.486v29.576a6 6 0 0 0 6 6zm6-35.574a43.536 43.536 0 0 1 43.486-43.486h21.869a43.535 43.535 0 0 1 43.485 43.486v23.574h-108.84z"/><path d="m399.665 92.554c23.418 0 42.469-18.517 42.469-41.277s-19.051-41.277-42.469-41.277-42.465 18.517-42.465 41.277 19.048 41.277 42.465 41.277zm0-70.554c16.8 0 30.469 13.134 30.469 29.277s-13.669 29.277-30.469 29.277-30.465-13.134-30.465-29.277 13.664-29.277 30.465-29.277z"/><path d="m339.245 193.9h120.84a6 6 0 0 0 6-6v-29.576a55.548 55.548 0 0 0 -55.485-55.486h-21.87a55.548 55.548 0 0 0 -55.485 55.486v29.576a6 6 0 0 0 6 6zm6-35.574a43.535 43.535 0 0 1 43.485-43.486h21.87a43.535 43.535 0 0 1 43.486 43.486v23.574h-108.841z"/><path d="m245.542 92.554c23.418 0 42.47-18.517 42.47-41.277s-19.052-41.277-42.47-41.277-42.469 18.517-42.469 41.277 19.051 41.277 42.469 41.277zm0-70.554c16.8 0 30.47 13.134 30.47 29.277s-13.669 29.277-30.47 29.277-30.469-13.134-30.469-29.277 13.669-29.277 30.469-29.277z"/><path d="m185.123 193.9h120.839a6 6 0 0 0 6-6v-29.576a55.548 55.548 0 0 0 -55.485-55.486h-21.869a55.548 55.548 0 0 0 -55.485 55.486v29.576a6 6 0 0 0 6 6zm6-35.574a43.535 43.535 0 0 1 43.485-43.486h21.869a43.535 43.535 0 0 1 43.485 43.486v23.574h-108.839z"/><path d="m248.089 308.225c21.527 0 39.04-17.029 39.04-37.96s-17.513-37.96-39.04-37.96-39.04 17.029-39.04 37.96 17.514 37.96 39.04 37.96zm0-63.92c14.91 0 27.04 11.646 27.04 25.96s-12.13 25.96-27.04 25.96-27.04-11.646-27.04-25.96 12.13-25.96 27.04-25.96z"/><path d="m193.351 400.04h109.478a6 6 0 0 0 6-6v-22.14a55.548 55.548 0 0 0 -55.486-55.485h-10.507a55.548 55.548 0 0 0 -55.485 55.485v22.14a6 6 0 0 0 6 6zm6-28.141a43.535 43.535 0 0 1 43.485-43.485h10.507a43.535 43.535 0 0 1 43.486 43.486v16.14h-97.478z"/><path d="m130.541 341.643c9.031 57.273 59.97 98.281 117.932 98.281a123.95 123.95 0 0 0 18.654-1.417 120.282 120.282 0 0 0 74.036-40.851l27.179 19.715a18.224 18.224 0 0 0 5.821 22.825l80.478 58.289a18.884 18.884 0 0 0 26-3.978l2.718-3.636a18.236 18.236 0 0 0 -4.021-25.784l-80.479-58.287a18.925 18.925 0 0 0 -23.232 1.034l-27.145-19.69a113.269 113.269 0 0 0 19.055-82.625c-9.991-63.351-71.268-106.8-136.587-96.865-32.33 4.92-60.585 21.911-79.561 47.844a113.4 113.4 0 0 0 -20.848 85.145zm257.359 73.629a6.757 6.757 0 0 1 3.946 1.26l80.479 58.29a6.311 6.311 0 0 1 2.6 4.183 6.185 6.185 0 0 1 -1.18 4.682l-2.718 3.637a6.814 6.814 0 0 1 -9.372 1.425l-80.48-58.29a6.309 6.309 0 0 1 -2.6-4.183 6.186 6.186 0 0 1 1.181-4.682l2.718-3.637a6.758 6.758 0 0 1 5.426-2.685zm-155.146-194.758a111.954 111.954 0 0 1 16.851-1.28c52.158 0 97.978 36.775 106.078 88.15a101.476 101.476 0 0 1 -18.683 76.195 108.17 108.17 0 0 1 -71.68 43.065c-58.821 8.948-113.965-30.02-122.929-86.87a101.478 101.478 0 0 1 18.68-76.194 108.171 108.171 0 0 1 71.683-43.066z"/></svg>